<svg width="176" height="64" viewBox="0 0 176 64" fill="none" xmlns="http://www.w3.org/2000/svg">
<path d="M159.346 0C155.746 14.9713 147.939 26.9658 135.882 35.896C123.131 45.3078 107.3 50.0356 88.4337 50.0356C74.7284 50.0356 62.1074 47.0588 50.5273 41.1053C38.9472 35.1519 29.6225 26.2216 22.553 14.3146C19.9507 9.93706 17.7822 5.1655 16.0907 0.0437516H0C1.82159 5.99724 4.12025 11.6443 6.93937 16.9849C14.963 32.1313 26.066 43.7319 40.2484 51.8304C54.4308 59.9289 70.4781 64 88.3903 64C112.244 64 131.935 57.8714 147.549 45.6142C162.425 33.8824 171.88 18.6922 176 0.0875366H159.346V0Z" fill="#FF7400"/>
</svg>
