<svg width="18" height="19" viewBox="0 0 18 19" fill="none" xmlns="http://www.w3.org/2000/svg">
<path d="M17.6669 14.025L17.6669 17.883L6.05885 17.883L6.05885 14.025L17.6669 14.025ZM0.46185 15.928C0.439233 16.2029 0.47341 16.4795 0.562258 16.7406C0.651105 17.0018 0.792723 17.2418 0.978306 17.4459C1.16389 17.65 1.38947 17.8137 1.64102 17.9268C1.89257 18.04 2.16471 18.1002 2.44052 18.1037C2.71633 18.1072 2.98991 18.054 3.24426 17.9472C3.4986 17.8405 3.72827 17.6826 3.91898 17.4833C4.10969 17.284 4.25736 17.0476 4.35282 16.7888C4.44827 16.53 4.48947 16.2544 4.47385 15.979L4.47385 15.953C4.4969 15.6767 4.46259 15.3986 4.37308 15.1362C4.28358 14.8738 4.1408 14.6327 3.95371 14.4281C3.76662 14.2234 3.53925 14.0597 3.28588 13.9471C3.03251 13.8345 2.75861 13.7755 2.48135 13.7738C2.2041 13.772 1.92948 13.8276 1.67472 13.9371C1.41997 14.0465 1.19058 14.2074 1.00096 14.4097C0.811332 14.6119 0.665559 14.8512 0.572787 15.1125C0.480015 15.3738 0.442246 15.6514 0.46185 15.928V15.928ZM17.6669 11.889L17.6669 8.03098L11.1849 8.03098C10.8661 8.04589 10.5473 8.00286 10.2439 7.90398C9.83324 7.75967 9.47727 7.49196 9.22468 7.13751C8.97209 6.78307 8.83524 6.35921 8.83285 5.92398C8.83285 4.52398 9.89685 3.96898 11.4578 3.96898L17.6669 3.96898L17.6669 0.110984L11.0108 0.110984C7.44585 0.110984 5.78585 2.01098 5.78585 4.55298C5.75662 5.25213 5.91958 5.94591 6.25703 6.55892C6.59447 7.17193 7.09349 7.68072 7.69985 8.02998L6.05885 8.02998L6.05885 11.889C7.14785 11.838 17.6679 11.889 17.6679 11.889L17.6669 11.889Z" fill="black"/>
</svg>
