<svg width="18" height="20" viewBox="0 0 18 20" fill="none" xmlns="http://www.w3.org/2000/svg">
<path d="M3.44169 2.357C3.34658 1.54369 3.13018 0.749205 2.79969 -8.46859e-08C3.62456 0.551906 4.34476 1.24603 4.92669 2.05C5.10269 2.041 5.27869 2.037 5.45669 2.037C6.99238 2.0269 8.51477 2.32198 9.93546 2.90513C11.3562 3.48828 12.6468 4.34786 13.7326 5.43396C14.8183 6.52006 15.6774 7.81104 16.2601 9.23193C16.8428 10.6528 17.1373 12.1753 17.1267 13.711C17.1285 15.9409 16.4884 18.1242 15.2827 20C15.3212 19.6751 15.3406 19.3482 15.3407 19.021C15.3447 17.1719 14.7258 15.3753 13.5837 13.921C13.5675 14.777 13.2841 15.6065 12.7733 16.2936C12.2625 16.9807 11.5497 17.4909 10.7347 17.753C10.7826 17.4981 10.8067 17.2393 10.8067 16.98C10.8073 16.6152 10.7592 16.252 10.6637 15.9C10.4767 16.8293 9.97379 17.6651 9.24047 18.2658C8.50716 18.8664 7.58858 19.1947 6.64069 19.195L6.58869 19.195C6.90574 18.6256 7.08166 17.9884 7.10169 17.337C6.52123 18.2055 5.63162 18.8202 4.61392 19.056C3.59622 19.2918 2.52693 19.1308 1.62369 18.606C2.89128 17.576 3.92803 16.2908 4.6666 14.834C5.40517 13.3772 5.82904 11.7813 5.91069 10.15C5.60397 10.2201 5.29032 10.2553 4.97569 10.255C4.15127 10.2577 3.34519 10.0118 2.66266 9.54938C1.98013 9.08697 1.45286 8.42954 1.14965 7.6629C0.846453 6.89626 0.781412 6.05602 0.963021 5.25185C1.14463 4.44768 1.56445 3.71694 2.16769 3.155C1.98574 2.23557 1.64751 1.35413 1.16769 0.549C2.1203 0.855152 2.92871 1.49791 3.44169 2.357Z" fill="black"/>
</svg>
